<svg xmlns="http://www.w3.org/2000/svg" viewBox="0 0 32 32"><g data-name="107 log-in-04"><path d="M18 27h-3.12A2.79 2.79 0 0 1 12 24.31v-2.54h2v2.54a.81.81 0 0 0 .88.69H18ZM29 22h-2V5.69a.81.81 0 0 0-.87-.69H14.88a.81.81 0 0 0-.88.69v2.54h-2V5.69A2.79 2.79 0 0 1 14.88 3h11.25A2.79 2.79 0 0 1 29 5.69ZM9.71 20.71l-1.42-1.42 4.3-4.29-4.3-4.29 1.42-1.42 4.29 4.3a2 2 0 0 1 0 2.82Z"/><path d="M3 14h10v2H3zM19.56 29A2.49 2.49 0 0 1 17 26.42v-18A3.7 3.7 0 0 1 19.79 5l6-1.46a2.63 2.63 0 0 1 2.26.46A2.55 2.55 0 0 1 29 6v18a3.72 3.72 0 0 1-2.76 3.46l-6 1.45a2.86 2.86 0 0 1-.68.09Zm6.92-23.57h-.24l-6 1.45A1.7 1.7 0 0 0 19 8.42v18a.61.61 0 0 0 .18.48.73.73 0 0 0 .58.07l6-1.46A1.71 1.71 0 0 0 27 24V6a.59.59 0 0 0-.18-.47.55.55 0 0 0-.34-.1Z"/></g></svg>