<?xml version="1.0" ?><svg xmlns="http://www.w3.org/2000/svg" viewBox="0 0 32 32"><g id="_107_log-in-04" data-name="107 log-in-04"><path d="M18,27H14.88A2.79,2.79,0,0,1,12,24.31V21.77h2v2.54a.81.81,0,0,0,.88.69H18Z"/><path d="M29,22H27V5.69A.81.81,0,0,0,26.13,5H14.88a.81.81,0,0,0-.88.69V8.23H12V5.69A2.79,2.79,0,0,1,14.88,3H26.13A2.79,2.79,0,0,1,29,5.69Z"/><path d="M9.71,20.71,8.29,19.29,12.59,15l-4.3-4.29L9.71,9.29,14,13.59a2,2,0,0,1,0,2.82Z"/><rect x="3" y="14" width="10" height="2"/><path d="M19.56,29A2.49,2.49,0,0,1,17,26.42v-18A3.7,3.7,0,0,1,19.79,5l6-1.46A2.63,2.63,0,0,1,28.05,4,2.55,2.55,0,0,1,29,6V24a3.72,3.72,0,0,1-2.76,3.46l-6,1.45A2.86,2.86,0,0,1,19.56,29ZM26.48,5.43l-.24,0-6,1.45A1.7,1.7,0,0,0,19,8.42v18a.61.61,0,0,0,.18.48.73.73,0,0,0,.58.07l6-1.46h0A1.71,1.71,0,0,0,27,24V6a.59.59,0,0,0-.18-.47A.55.55,0,0,0,26.48,5.43Z"/></g></svg>