<?xml version="1.0" ?><!DOCTYPE svg  PUBLIC '-//W3C//DTD SVG 1.1//EN'  'http://www.w3.org/Graphics/SVG/1.1/DTD/svg11.dtd'><svg enable-background="new 0 0 24 24" height="24px" id="Layer_1" version="1.1" viewBox="0 0 24 24" width="24px" xml:space="preserve" xmlns="http://www.w3.org/2000/svg" xmlns:xlink="http://www.w3.org/1999/xlink"><path d="M24,11V0l-3.5,3.5C18.4,1.3,15.4,0,12.1,0c-6.6,0-12,5.4-12,12s5.4,12,12,12c3.3,0,6.3-1.3,8.5-3.5l-4.2-4.2  c-1.1,1.1-2.6,1.8-4.2,1.8c-3.3,0-6-2.7-6-6s2.7-6,6-6c1.7,0,3.2,0.7,4.2,1.8L13.1,11H24z M12.1,4c-4.4,0-8,3.6-8,8s3.6,8,8,8  c1.5,0,2.8-0.4,4-1.1l1.5,1.5c-1.6,1-3.4,1.6-5.5,1.6c-5.5,0-10-4.5-10-10s4.5-10,10-10c2.8,0,5.3,1.1,7.1,2.9l1.4,1.5L22,5v4h-3.9  l1.2-1.2l-1.5-1.5C16.3,4.9,14.3,4,12.1,4z"/></svg>